<svg xmlns="http://www.w3.org/2000/svg" viewBox="0 0 69 25" shape-rendering="crispEdges"><rect x="6" y="3" width="3" height="3" fill="#778"/><rect x="7" y="4" width="1" height="1" fill="#FBC"/><rect x="15" y="3" width="3" height="3" fill="#778"/><rect x="16" y="4" width="1" height="1" fill="#FBC"/><rect x="5" y="6" width="14" height="8" fill="#778"/><rect x="8" y="8" width="2" height="2" fill="#0"/><rect x="14" y="8" width="2" height="2" fill="#0"/><rect x="9" y="8" width="1" height="1" fill="#FFF"/><rect x="15" y="8" width="1" height="1" fill="#FFF"/><rect x="11" y="10" width="2" height="1" fill="#F6B"/><rect x="10" y="11" width="1" height="1" fill="#333"/><rect x="13" y="11" width="1" height="1" fill="#333"/><rect x="11" y="12" width="2" height="1" fill="#333"/><rect x="3" y="9" width="3" height="1" fill="#333"/><rect x="18" y="9" width="3" height="1" fill="#333"/><rect x="3" y="11" width="3" height="1" fill="#333"/><rect x="7" y="14" width="10" height="5" fill="#778"/><rect x="7" y="19" width="3" height="3" fill="#778"/><rect x="14" y="19" width="3" height="3" fill="#778"/><rect x="17" y="15" width="2" height="2" fill="#778"/><rect x="19" y="13" width="2" height="2" fill="#778"/><rect x="20" y="11" width="2" height="2" fill="#778"/><rect x="18" y="11" width="3" height="1" fill="#333"/><rect x="39" y="15" width="1" height="7" fill="#000"/><rect x="50" y="15" width="1" height="1" fill="#000"/><rect x="58" y="15" width="2" height="1" fill="#000"/><rect x="63" y="15" width="2" height="1" fill="#000"/><rect x="57" y="16" width="1" height="2" fill="#000"/><rect x="60" y="16" width="1" height="2" fill="#000"/><rect x="62" y="16" width="1" height="2" fill="#000"/><rect x="65" y="16" width="1" height="2" fill="#000"/><rect x="25" y="17" width="2" height="1" fill="#000"/><rect x="29" y="17" width="1" height="5" fill="#000"/><rect x="31" y="17" width="1" height="1" fill="#000"/><rect x="35" y="17" width="2" height="1" fill="#000"/><rect x="41" y="17" width="1" height="1" fill="#000"/><rect x="45" y="17" width="2" height="1" fill="#000"/><rect x="50" y="17" width="1" height="5" fill="#000"/><rect x="52" y="17" width="1" height="5" fill="#000"/><rect x="54" y="17" width="1" height="1" fill="#000"/><rect x="24" y="18" width="1" height="3" fill="#000"/><rect x="27" y="18" width="1" height="3" fill="#000"/><rect x="30" y="18" width="1" height="1" fill="#000"/><rect x="32" y="18" width="1" height="4" fill="#000"/><rect x="34" y="18" width="1" height="3" fill="#000"/><rect x="37" y="18" width="1" height="1" fill="#000"/><rect x="40" y="18" width="1" height="1" fill="#000"/><rect x="42" y="18" width="1" height="4" fill="#000"/><rect x="44" y="18" width="1" height="3" fill="#000"/><rect x="47" y="18" width="1" height="3" fill="#000"/><rect x="53" y="18" width="1" height="1" fill="#000"/><rect x="55" y="18" width="1" height="4" fill="#000"/><rect x="58" y="18" width="2" height="1" fill="#000"/><rect x="63" y="18" width="2" height="1" fill="#000"/><rect x="57" y="19" width="1" height="2" fill="#000"/><rect x="60" y="19" width="1" height="2" fill="#000"/><rect x="62" y="19" width="1" height="2" fill="#000"/><rect x="65" y="19" width="1" height="2" fill="#000"/><rect x="37" y="20" width="1" height="1" fill="#000"/><rect x="25" y="21" width="2" height="1" fill="#000"/><rect x="35" y="21" width="2" height="1" fill="#000"/><rect x="45" y="21" width="2" height="1" fill="#000"/><rect x="48" y="21" width="1" height="1" fill="#000"/><rect x="58" y="21" width="2" height="1" fill="#000"/><rect x="63" y="21" width="2" height="1" fill="#000"/></svg>