<svg xmlns="http://www.w3.org/2000/svg" viewBox="0 0 69 25" shape-rendering="crispEdges"><rect x="6" y="3" width="3" height="1" fill="#e2d7c2"/><rect x="15" y="3" width="3" height="1" fill="#e2d7c2"/><rect x="6" y="4" width="1" height="10" fill="#e2d7c2"/><rect x="8" y="4" width="1" height="4" fill="#e2d7c2"/><rect x="15" y="4" width="1" height="4" fill="#e2d7c2"/><rect x="17" y="4" width="1" height="10" fill="#e2d7c2"/><rect x="7" y="5" width="1" height="16" fill="#e2d7c2"/><rect x="16" y="5" width="1" height="16" fill="#e2d7c2"/><rect x="5" y="6" width="1" height="3" fill="#e2d7c2"/><rect x="9" y="6" width="6" height="2" fill="#e2d7c2"/><rect x="18" y="6" width="1" height="3" fill="#e2d7c2"/><rect x="10" y="8" width="1" height="1" fill="#e2d7c2"/><rect x="13" y="8" width="1" height="1" fill="#e2d7c2"/><rect x="5" y="10" width="1" height="1" fill="#e2d7c2"/><rect x="8" y="10" width="1" height="11" fill="#e2d7c2"/><rect x="15" y="10" width="1" height="11" fill="#e2d7c2"/><rect x="18" y="10" width="1" height="1" fill="#e2d7c2"/><rect x="9" y="11" width="1" height="10" fill="#e2d7c2"/><rect x="14" y="11" width="1" height="10" fill="#e2d7c2"/><rect x="21" y="11" width="1" height="2" fill="#e2d7c2"/><rect x="5" y="12" width="1" height="2" fill="#e2d7c2"/><rect x="10" y="12" width="1" height="7" fill="#e2d7c2"/><rect x="13" y="12" width="1" height="7" fill="#e2d7c2"/><rect x="18" y="12" width="1" height="2" fill="#e2d7c2"/><rect x="20" y="12" width="1" height="3" fill="#e2d7c2"/><rect x="11" y="13" width="2" height="6" fill="#e2d7c2"/><rect x="19" y="13" width="1" height="2" fill="#e2d7c2"/><rect x="17" y="15" width="2" height="2" fill="#e2d7c2"/><rect x="7" y="4" width="1" height="1" fill="#b8af9d"/><rect x="16" y="4" width="1" height="1" fill="#b8af9d"/><rect x="11" y="8" width="2" height="2" fill="#b8af9d"/><rect x="10" y="9" width="1" height="2" fill="#b8af9d"/><rect x="13" y="9" width="1" height="2" fill="#b8af9d"/><rect x="9" y="10" width="1" height="1" fill="#b8af9d"/><rect x="14" y="10" width="1" height="1" fill="#b8af9d"/><rect x="11" y="11" width="2" height="1" fill="#b8af9d"/><rect x="8" y="8" width="1" height="2" fill="#0"/><rect x="14" y="8" width="1" height="2" fill="#0"/><rect x="9" y="9" width="1" height="1" fill="#0"/><rect x="15" y="9" width="1" height="1" fill="#0"/><rect x="9" y="8" width="1" height="1" fill="#FFF"/><rect x="15" y="8" width="1" height="1" fill="#FFF"/><rect x="3" y="9" width="3" height="1" fill="#333"/><rect x="18" y="9" width="3" height="1" fill="#333"/><rect x="3" y="11" width="3" height="1" fill="#333"/><rect x="10" y="11" width="1" height="1" fill="#333"/><rect x="13" y="11" width="1" height="1" fill="#333"/><rect x="18" y="11" width="3" height="1" fill="#333"/><rect x="11" y="12" width="2" height="1" fill="#333"/><rect x="11" y="10" width="2" height="1" fill="#7f6739"/><rect x="7" y="21" width="3" height="1" fill="#918a7e"/><rect x="14" y="21" width="3" height="1" fill="#918a7e"/><rect x="39" y="15" width="1" height="7" fill="#000"/><rect x="50" y="15" width="1" height="1" fill="#000"/><rect x="58" y="15" width="2" height="1" fill="#000"/><rect x="63" y="15" width="2" height="1" fill="#000"/><rect x="57" y="16" width="1" height="2" fill="#000"/><rect x="60" y="16" width="1" height="2" fill="#000"/><rect x="62" y="16" width="1" height="2" fill="#000"/><rect x="65" y="16" width="1" height="2" fill="#000"/><rect x="25" y="17" width="2" height="1" fill="#000"/><rect x="29" y="17" width="1" height="5" fill="#000"/><rect x="31" y="17" width="1" height="1" fill="#000"/><rect x="35" y="17" width="2" height="1" fill="#000"/><rect x="41" y="17" width="1" height="1" fill="#000"/><rect x="45" y="17" width="2" height="1" fill="#000"/><rect x="50" y="17" width="1" height="5" fill="#000"/><rect x="52" y="17" width="1" height="5" fill="#000"/><rect x="54" y="17" width="1" height="1" fill="#000"/><rect x="24" y="18" width="1" height="3" fill="#000"/><rect x="27" y="18" width="1" height="3" fill="#000"/><rect x="30" y="18" width="1" height="1" fill="#000"/><rect x="32" y="18" width="1" height="4" fill="#000"/><rect x="34" y="18" width="1" height="3" fill="#000"/><rect x="37" y="18" width="1" height="1" fill="#000"/><rect x="40" y="18" width="1" height="1" fill="#000"/><rect x="42" y="18" width="1" height="4" fill="#000"/><rect x="44" y="18" width="1" height="3" fill="#000"/><rect x="47" y="18" width="1" height="3" fill="#000"/><rect x="53" y="18" width="1" height="1" fill="#000"/><rect x="55" y="18" width="1" height="4" fill="#000"/><rect x="58" y="18" width="2" height="1" fill="#000"/><rect x="63" y="18" width="2" height="1" fill="#000"/><rect x="57" y="19" width="1" height="2" fill="#000"/><rect x="60" y="19" width="1" height="2" fill="#000"/><rect x="62" y="19" width="1" height="2" fill="#000"/><rect x="65" y="19" width="1" height="2" fill="#000"/><rect x="37" y="20" width="1" height="1" fill="#000"/><rect x="25" y="21" width="2" height="1" fill="#000"/><rect x="35" y="21" width="2" height="1" fill="#000"/><rect x="45" y="21" width="2" height="1" fill="#000"/><rect x="48" y="21" width="1" height="1" fill="#000"/><rect x="58" y="21" width="2" height="1" fill="#000"/><rect x="63" y="21" width="2" height="1" fill="#000"/></svg>