<svg viewBox="0 0 24 24" xmlns="http://www.w3.org/2000/svg"><rect x="6" y="3" width="3" height="3" fill="#778"/><rect x="7" y="4" width="1" height="1" fill="#FBC"/><rect x="15" y="3" width="3" height="3" fill="#778"/><rect x="16" y="4" width="1" height="1" fill="#FBC"/><rect x="5" y="6" width="14" height="8" fill="#778"/><rect x="8" y="8" width="2" height="2" fill="#0"/><rect x="14" y="8" width="2" height="2" fill="#0"/><rect x="9" y="8" width="1" height="1" fill="#FFF"/><rect x="15" y="8" width="1" height="1" fill="#FFF"/><rect x="11" y="10" width="2" height="1" fill="#F6B"/><rect x="10" y="11" width="1" height="1" fill="#333"/><rect x="13" y="11" width="1" height="1" fill="#333"/><rect x="11" y="12" width="2" height="1" fill="#333"/><rect x="3" y="9" width="3" height="1" fill="#333"/><rect x="18" y="9" width="3" height="1" fill="#333"/><rect x="3" y="11" width="3" height="1" fill="#333"/><rect x="7" y="14" width="10" height="5" fill="#778"/><rect x="7" y="19" width="3" height="3" fill="#778"/><rect x="14" y="19" width="3" height="3" fill="#778"/><rect x="17" y="15" width="2" height="2" fill="#778"/><rect x="19" y="13" width="2" height="2" fill="#778"/><rect x="20" y="11" width="2" height="2" fill="#778"/><rect x="18" y="11" width="3" height="1" fill="#333"/>
</svg>
